REM DIRINDEX 1\4,1\2\5,1\2\6,1\3\7,1\3\8,1\3\9,1\3\10
REM DIRNAME folder01,folder02,folder03,folder04,folder05,folder06,folder07,folder08,folder09,folder10
TITLE ""
FILE "DISC2Track31.mp3" MP3
  TRACK 01 AUDIO
    TITLE "0:"
    INDEX 01 00:00:00
  TRACK 02 AUDIO
    TITLE "7:cjc107_2017"
    INDEX 01 00:00:01
  TRACK 03 AUDIO
    TITLE "0:"
    INDEX 01 00:03:02
  TRACK 04 AUDIO
    TITLE "8:cjc107_2018"
    INDEX 01 00:04:13
  TRACK 05 AUDIO
    TITLE "0:"
    INDEX 01 00:05:34
  TRACK 06 AUDIO
    TITLE "9:cjc107_2019"
    INDEX 01 00:05:48
  TRACK 07 AUDIO
    TITLE "0:"
    INDEX 01 00:08:11
  TRACK 08 AUDIO
    TITLE "8:cjc107_2020"
    INDEX 01 00:08:58
  TRACK 09 AUDIO
    TITLE "0:"
    INDEX 01 00:10:18
  TRACK 10 AUDIO
    TITLE "9:cjc107_2021"
    INDEX 01 00:10:19
  TRACK 11 AUDIO
    TITLE "0:"
    INDEX 01 00:11:50
  TRACK 12 AUDIO
    TITLE "8:cjc107_2022"
    INDEX 01 00:12:22
  TRACK 13 AUDIO
    TITLE "0:"
    INDEX 01 00:13:30
  TRACK 14 AUDIO
    TITLE "9:cjc107_2023"
    INDEX 01 00:13:32
  TRACK 15 AUDIO
    TITLE "0:"
    INDEX 01 00:15:28
  TRACK 16 AUDIO
    TITLE "8:cjc107_2024"
    INDEX 01 00:15:74
  TRACK 17 AUDIO
    TITLE "0:"
    INDEX 01 00:17:06
  TRACK 18 AUDIO
    TITLE "9:cjc107_2025"
    INDEX 01 00:17:14
  TRACK 19 AUDIO
    TITLE "0:"
    INDEX 01 00:18:23
  TRACK 20 AUDIO
    TITLE "8:cjc107_2026"
    INDEX 01 00:18:70
  TRACK 21 AUDIO
    TITLE "0:"
    INDEX 01 00:20:00
  TRACK 22 AUDIO
    TITLE "9:cjc107_2027"
    INDEX 01 00:20:08
  TRACK 23 AUDIO
    TITLE "0:"
    INDEX 01 00:22:15
  TRACK 24 AUDIO
    TITLE "8:cjc107_2028"
    INDEX 01 00:22:54
  TRACK 25 AUDIO
    TITLE "0:"
    INDEX 01 00:23:55
  TRACK 26 AUDIO
    TITLE "9:cjc107_2029"
    INDEX 01 00:23:57
  TRACK 27 AUDIO
    TITLE "0:"
    INDEX 01 00:25:01
  TRACK 28 AUDIO
    TITLE "8:cjc107_2030"
    INDEX 01 00:25:45
  TRACK 29 AUDIO
    TITLE "0:"
    INDEX 01 00:26:60
  TRACK 30 AUDIO
    TITLE "9:cjc107_2031"
    INDEX 01 00:26:67
  TRACK 31 AUDIO
    TITLE "0:"
    INDEX 01 00:28:02
  TRACK 32 AUDIO
    TITLE "8:cjc107_2032"
    INDEX 01 00:28:51
  TRACK 33 AUDIO
    TITLE "0:"
    INDEX 01 00:29:50
  TRACK 34 AUDIO
    TITLE "9:cjc107_2033"
    INDEX 01 00:29:54
  TRACK 35 AUDIO
    TITLE "0:"
    INDEX 01 00:30:71
  TRACK 36 AUDIO
    TITLE "8:cjc107_2034"
    INDEX 01 00:31:39
  TRACK 37 AUDIO
    TITLE "0:"
    INDEX 01 00:32:43
  TRACK 38 AUDIO
    TITLE "9:cjc107_2035"
    INDEX 01 00:32:45
  TRACK 39 AUDIO
    TITLE "0:"
    INDEX 01 00:34:65
  TRACK 40 AUDIO
    TITLE "8:cjc107_2036"
    INDEX 01 00:35:39
  TRACK 41 AUDIO
    TITLE "0:"
    INDEX 01 00:36:48
  TRACK 42 AUDIO
    TITLE "9:cjc107_2037"
    INDEX 01 00:36:50
  TRACK 43 AUDIO
    TITLE "0:"
    INDEX 01 00:38:31
  TRACK 44 AUDIO
    TITLE "8:cjc107_2038"
    INDEX 01 00:39:03
  TRACK 45 AUDIO
    TITLE "0:"
    INDEX 01 00:39:66
  TRACK 46 AUDIO
    TITLE "9:cjc107_2039"
    INDEX 01 00:40:01
  TRACK 47 AUDIO
    TITLE "0:"
    INDEX 01 00:42:06
  TRACK 48 AUDIO
    TITLE "8:cjc107_2040"
    INDEX 01 00:42:55
  TRACK 49 AUDIO
    TITLE "0:"
    INDEX 01 00:44:03
  TRACK 50 AUDIO
    TITLE "9:cjc107_2041"
    INDEX 01 00:44:07
  TRACK 51 AUDIO
    TITLE "0:"
    INDEX 01 00:45:55
  TRACK 52 AUDIO
    TITLE "8:cjc107_2042"
    INDEX 01 00:46:25
  TRACK 53 AUDIO
    TITLE "0:"
    INDEX 01 00:47:38
  TRACK 54 AUDIO
    TITLE "9:cjc107_2043"
    INDEX 01 00:47:40
  TRACK 55 AUDIO
    TITLE "0:"
    INDEX 01 00:50:39
  TRACK 56 AUDIO
    TITLE "8:cjc107_2044"
    INDEX 01 00:51:11
  TRACK 57 AUDIO
    TITLE "0:"
    INDEX 01 00:52:08
  TRACK 58 AUDIO
    TITLE "9:cjc107_2045"
    INDEX 01 00:52:16
  TRACK 59 AUDIO
    TITLE "0:"
    INDEX 01 00:54:03
  TRACK 60 AUDIO
    TITLE "10:cjc107_2046"
    INDEX 01 00:55:44
  TRACK 61 AUDIO
    TITLE "10:cjc107_2047"
    INDEX 01 01:01:21
  TRACK 62 AUDIO
    TITLE "10:cjc107_2048"
    INDEX 01 01:04:60
  TRACK 63 AUDIO
    TITLE "10:cjc107_2049"
    INDEX 01 01:11:49
  TRACK 64 AUDIO
    TITLE "10:cjc107_2050"
    INDEX 01 01:23:38
  TRACK 65 AUDIO
    TITLE "10:cjc107_2051"
    INDEX 01 01:27:04
  TRACK 66 AUDIO
    TITLE "10:cjc107_2052"
    INDEX 01 01:29:35
  TRACK 67 AUDIO
    TITLE "0:"
    INDEX 01 01:32:15
